<svg width="40" height="40" viewBox="0 0 40 40" fill="none" xmlns="http://www.w3.org/2000/svg">
<path d="M36.7877 27.4742H30.1121C29.5186 27.4742 28.9309 27.591 28.3825 27.8181C27.8342 28.0452 27.336 28.3781 26.9163 28.7977L21.293 34.421L17.3354 30.4634C16.6722 29.8018 15.7736 29.4303 14.8369 29.4303C13.9001 29.4303 13.0016 29.8018 12.3384 30.4634L7.5802 35.2215H4.6233C4.12629 35.2075 3.64164 35.3777 3.26262 35.6996C2.8836 36.0214 2.63699 36.472 2.57026 36.9647C2.5431 37.2348 2.57305 37.5077 2.65815 37.7655C2.74325 38.0233 2.88161 38.2604 3.06424 38.4613C3.24687 38.6622 3.4697 38.8224 3.71827 38.9316C3.96684 39.0408 4.23559 39.0966 4.50709 39.0952H7.30905C8.50306 39.1039 9.65197 38.6397 10.5048 37.804L14.8369 33.4397L18.8849 37.4876C19.5237 38.1236 20.3884 38.4806 21.2898 38.4806C22.1912 38.4806 23.0558 38.1236 23.6947 37.4876L29.8474 31.3479H36.6779C37.1738 31.3603 37.6569 31.1893 38.0346 30.8677C38.4122 30.546 38.6579 30.0963 38.7245 29.6047C38.7517 29.3346 38.7217 29.0617 38.6366 28.8039C38.5515 28.5461 38.4132 28.3091 38.2305 28.1082C38.0479 27.9073 37.8251 27.747 37.5765 27.6378C37.3279 27.5286 37.0592 27.4728 36.7877 27.4742Z" fill="#3688AE"/>
<path d="M36.9357 4.51628C35.9704 3.44151 34.7955 2.57552 33.4831 1.97154C32.1708 1.36756 30.7488 1.03835 29.3046 1.00415C27.6222 0.957681 25.952 1.30196 24.4251 2.00994C22.8983 2.71791 21.5564 3.7703 20.5049 5.08442L20.0013 5.73003L19.4978 5.08442C18.4874 3.81485 17.2044 2.7889 15.7437 2.08258C14.283 1.37626 12.6821 1.00768 11.0596 1.00415H10.7045C9.26478 1.03907 7.84714 1.36609 6.53758 1.96537C5.22803 2.56466 4.05386 3.42372 3.08631 4.49045C2.02485 5.65301 1.20671 7.01617 0.680048 8.4997C0.153386 9.98322 -0.0711537 11.5571 0.0196499 13.1287C0.204906 16.6224 1.37311 19.9927 3.38974 22.8516C3.8223 23.465 4.33234 24.1429 4.95212 24.8466C5.29061 25.2278 5.7622 25.465 6.27006 25.5094C6.77793 25.5538 7.28353 25.4021 7.68306 25.0855C7.87824 24.922 8.03927 24.7216 8.15693 24.4958C8.27459 24.27 8.34657 24.0232 8.36876 23.7695C8.39094 23.5159 8.3629 23.2603 8.28623 23.0175C8.20956 22.7747 8.08577 22.5494 7.92194 22.3545C7.36671 21.7089 6.92124 21.1214 6.55324 20.6049C4.94739 18.3428 4.01407 15.6727 3.86104 12.9028C3.79611 11.8466 3.94379 10.7881 4.29533 9.79006C4.64687 8.79199 5.19513 7.87462 5.90763 7.09227C6.53236 6.40945 7.28957 5.86097 8.13313 5.48026C8.97669 5.09954 9.88894 4.89457 10.8143 4.87782C11.9007 4.84855 12.979 5.07249 13.964 5.5319C14.9489 5.99132 15.8135 6.67362 16.4892 7.52483L18.4971 10.004C18.6786 10.229 18.9082 10.4106 19.1691 10.5353C19.4299 10.66 19.7154 10.7248 20.0046 10.7248C20.2937 10.7248 20.5792 10.66 20.84 10.5353C21.1009 10.4106 21.3305 10.229 21.5121 10.004L23.5199 7.52483C24.1993 6.67286 25.0673 5.99031 26.0554 5.53097C27.0436 5.07162 28.1249 4.84803 29.2142 4.87782C30.1354 4.90183 31.0419 5.11412 31.878 5.50162C32.714 5.88912 33.4619 6.44362 34.0757 7.131C34.7964 7.93354 35.348 8.87316 35.6974 9.89369C36.0469 10.9142 36.187 11.9947 36.1093 13.0706C35.9985 14.8671 35.5609 16.6283 34.8181 18.2678C34.6032 18.7344 34.5825 19.2672 34.7605 19.7491C34.9385 20.231 35.3006 20.6225 35.7672 20.8373C36.2338 21.0522 36.7666 21.073 37.2485 20.895C37.7304 20.717 38.1218 20.3549 38.3367 19.8883C39.2754 17.8216 39.8289 15.6008 39.9701 13.3353C40.0836 11.7368 39.8733 10.1318 39.3519 8.61648C38.8305 7.10113 38.0087 5.70656 36.9357 4.51628Z" fill="#3688AE"/>
</svg>
