<svg width="20" height="20" viewBox="0 0 20 20" fill="none" xmlns="http://www.w3.org/2000/svg">
<path d="M18.2939 2.77852C17.8632 2.79107 17.4543 2.97073 17.1538 3.27947C16.7797 3.65358 14.3035 6.19879 11.747 8.82446C9.67128 10.9562 8.20868 12.456 7.38526 13.2984L2.74716 9.7659C2.57593 9.6169 2.37594 9.50463 2.15957 9.43605C1.9432 9.36747 1.71505 9.34405 1.48926 9.36721C1.26346 9.39037 1.04482 9.45963 0.846879 9.5707C0.648935 9.68178 0.475898 9.83229 0.338481 10.0129C0.201064 10.1936 0.102192 10.4006 0.0479865 10.621C-0.00621884 10.8414 -0.0146036 11.0706 0.023351 11.2944C0.0613057 11.5181 0.144792 11.7317 0.268641 11.922C0.39249 12.1122 0.554066 12.2749 0.743364 12.4002L6.54747 16.8224C6.86668 17.0652 7.26309 17.1842 7.66328 17.1572C8.06346 17.1302 8.4403 16.9591 8.724 16.6755C9.09811 16.3014 11.5742 13.7648 14.1308 11.1392C16.6874 8.51352 19.3244 5.79878 19.5031 5.62013C19.741 5.38661 19.9031 5.08678 19.9682 4.75976C20.0332 4.43274 19.9981 4.09373 19.8676 3.78693C19.737 3.48013 19.517 3.21981 19.2363 3.03992C18.9556 2.86004 18.6271 2.76894 18.2939 2.77852Z" fill="#F9FFFF"/>
</svg>
