<svg width="16" height="16" viewBox="0 0 16 16" fill="none" xmlns="http://www.w3.org/2000/svg">
<path fill-rule="evenodd" clip-rule="evenodd" d="M1.5125 7.92L1.44 7.85249L0.2925 6.70751C0.199666 6.61458 0.126052 6.50427 0.0758637 6.38284C0.0256756 6.26147 -0.000102973 6.13138 3.09124e-07 6C3.09124e-07 5.07178 0.368749 4.18152 1.02513 3.52514C1.6815 2.86877 2.57174 2.50002 3.5 2.50002H7.08499L8.01499 1.57002C8.51192 1.07055 9.10299 0.674609 9.75397 0.405116C10.4049 0.135624 11.1029 -0.00206333 11.8075 2.33677e-05H13.75C14.3467 2.33677e-05 14.919 0.237076 15.341 0.659031C15.763 1.08099 16 1.65328 16 2.25002V4.19252C16.0021 4.89707 15.8644 5.59507 15.5949 6.24604C15.3254 6.89702 14.9295 7.48809 14.43 7.98502L13.5 8.91502V12.5C13.5 13.4283 13.1313 14.3185 12.4749 14.9749C11.8185 15.6312 10.9282 16 10 16C9.73992 15.9963 9.49148 15.8913 9.30748 15.7075L8.16001 14.56L8.0925 14.4875L8.05499 14.4575L6.75001 13.1525C5.77343 14.0243 4.50907 14.5042 3.2 14.5H2.5C2.16848 14.5 1.85054 14.3683 1.61612 14.1339C1.3817 13.8995 1.25 13.5815 1.25 13.25V12.55C1.24578 11.2409 1.72572 9.97653 2.5975 9L1.5425 7.95751L1.5125 7.92ZM4 10.425C3.52076 11.0109 3.25614 11.7431 3.25 12.5C4.00694 12.4939 4.73907 12.2292 5.32498 11.75L4 10.425ZM11.1837 13.422C11.3889 13.1585 11.5001 12.834 11.5 12.5V10.915L9.56001 12.855C9.52139 12.8939 9.4997 12.9464 9.4997 13.0012C9.4997 13.056 9.52139 13.1086 9.56001 13.1475L10.3675 13.955C10.6913 13.8732 10.9785 13.6856 11.1837 13.422ZM8.20748 4.20752L7.95748 4.45751L4.56001 7.86C4.51249 7.91 4.46001 7.95502 4.4075 8L8.00748 11.5925C8.0525 11.54 8.09748 11.49 8.14748 11.44L11.5425 8.04249L11.7925 7.79249L13.015 6.57C13.3282 6.25853 13.5766 5.88804 13.7457 5.47996C13.9147 5.07182 14.0012 4.63427 14 4.19252V2.25002C14 2.18372 13.9737 2.12012 13.9268 2.07324C13.8799 2.02636 13.8163 2.00002 13.75 2.00002H11.8075C11.3657 1.99883 10.9282 2.08527 10.5201 2.25435C10.112 2.42342 9.74148 2.67177 9.43001 2.98502L8.20748 4.20752ZM5.08498 4.5H3.5C3.16601 4.49987 2.84151 4.61116 2.57795 4.81631C2.31439 5.02147 2.12683 5.30871 2.045 5.63253L2.8525 6.44C2.89198 6.47747 2.94433 6.49836 2.99875 6.49836C3.05317 6.49836 3.10552 6.47747 3.145 6.44L5.08498 4.5ZM11.5 5.5C11.5 6.05231 11.0523 6.5 10.5 6.5C9.9477 6.5 9.50001 6.05231 9.50001 5.5C9.50001 4.94773 9.9477 4.5 10.5 4.5C11.0523 4.5 11.5 4.94773 11.5 5.5Z" fill="currentColor"/>
</svg>
