<svg width="41" height="40" viewBox="0 0 41 40" fill="none" xmlns="http://www.w3.org/2000/svg">
<g clip-path="url(#clip0_183660_156903)">
<path d="M5.84265 38.4133H19.2469C22.2916 38.4133 24.7686 35.9363 24.7686 32.8916V26.9636L38.0826 13.6496C39.4824 12.2498 40.25 10.392 40.25 8.41171C40.25 4.3285 36.928 1 32.8383 1C30.858 1 29.0002 1.76762 27.6004 3.16739L1.88845 28.8794C0.837003 29.9373 0.25 31.337 0.25 32.8271C0.25 35.904 2.75282 38.4133 5.8362 38.4133H5.84265ZM30.3419 5.90889C31.0128 5.23803 31.8965 4.87034 32.8447 4.87034C34.7928 4.87034 36.3861 6.45718 36.3861 8.41171C36.3861 9.35349 36.0184 10.2437 35.3476 10.9145L22.0916 24.1705L16.2539 20.0034L30.3419 5.91534V5.90889ZM4.62994 31.6209L13.4737 22.7771L20.8983 28.0795V32.8916C20.8983 33.8012 20.1565 34.543 19.2469 34.543H5.84265C4.90086 34.543 4.12679 33.7754 4.12679 32.8271C4.12679 32.3756 4.30741 31.9369 4.62994 31.6144V31.6209Z" fill="#3688AE"/>
<path d="M38.3145 34.543H31.8639C30.7995 34.543 29.9287 35.4138 29.9287 36.4781C29.9287 37.5425 30.7995 38.4133 31.8639 38.4133H38.3145C39.3788 38.4133 40.2496 37.5425 40.2496 36.4781C40.2496 35.4138 39.3788 34.543 38.3145 34.543Z" fill="#3688AE"/>
</g>
<defs>
<clipPath id="clip0_183660_156903">
<rect width="40" height="40" fill="white" transform="translate(0.25)"/>
</clipPath>
</defs>
</svg>
