<svg width="16" height="16" viewBox="0 0 16 16" fill="none" xmlns="http://www.w3.org/2000/svg">
<path d="M15.6943 7.16076C16.1019 7.5684 16.1019 8.25398 15.6943 8.66163L10.1726 14.2019C9.96873 14.4057 9.69079 14.5169 9.41285 14.5169C9.13492 14.5169 8.87551 14.4057 8.65316 14.2019C8.24551 13.7942 8.24551 13.1086 8.65316 12.701L12.359 8.99515H1.0747C0.48176 8.99515 0 8.51339 0 7.92046C0 7.32752 0.48176 6.84576 1.0747 6.84576H12.359L8.65316 3.13991C8.24551 2.73227 8.24551 2.04669 8.65316 1.63905C9.0608 1.2314 9.74638 1.2314 10.154 1.63905L15.6943 7.16076Z" fill="currentColor"/>
</svg>
