<svg width="140" height="30" viewBox="0 0 140 30" fill="none" xmlns="http://www.w3.org/2000/svg">
<g clip-path="url(#clip0_183701_1706)">
<path d="M0.525 22.5L5.901 7.8H8.715L14.091 22.5H11.424L7.287 10.74L3.15 22.5H0.525ZM2.919 19.035L3.591 17.04H10.836L11.508 19.035H2.919ZM20.5354 22.752C19.4994 22.752 18.5684 22.521 17.7424 22.059C16.9304 21.583 16.2934 20.932 15.8314 20.106C15.3834 19.266 15.1594 18.314 15.1594 17.25C15.1594 16.144 15.3834 15.178 15.8314 14.352C16.2934 13.512 16.9304 12.854 17.7424 12.378C18.5684 11.902 19.5064 11.664 20.5564 11.664C21.8724 11.664 22.9784 12.014 23.8744 12.714C24.7704 13.4 25.3444 14.345 25.5964 15.549H22.9504C22.8104 15.017 22.5164 14.597 22.0684 14.289C21.6344 13.981 21.1164 13.827 20.5144 13.827C19.9964 13.827 19.5204 13.96 19.0864 14.226C18.6664 14.492 18.3304 14.877 18.0784 15.381C17.8404 15.885 17.7214 16.494 17.7214 17.208C17.7214 17.754 17.7914 18.237 17.9314 18.657C18.0714 19.077 18.2674 19.434 18.5194 19.728C18.7854 20.008 19.0864 20.225 19.4224 20.379C19.7584 20.533 20.1224 20.61 20.5144 20.61C20.9204 20.61 21.2844 20.547 21.6064 20.421C21.9424 20.281 22.2224 20.078 22.4464 19.812C22.6844 19.546 22.8524 19.231 22.9504 18.867H25.5964C25.3444 20.043 24.7704 20.988 23.8744 21.702C22.9784 22.402 21.8654 22.752 20.5354 22.752ZM31.5541 22.752C30.6861 22.752 29.9651 22.605 29.3911 22.311C28.8171 22.017 28.3901 21.625 28.1101 21.135C27.8301 20.645 27.6901 20.113 27.6901 19.539C27.6901 18.867 27.8581 18.286 28.1941 17.796C28.5441 17.306 29.0551 16.928 29.7271 16.662C30.3991 16.382 31.2251 16.242 32.2051 16.242H34.8721C34.8721 15.682 34.7951 15.22 34.6411 14.856C34.4871 14.478 34.2491 14.198 33.9271 14.016C33.6051 13.834 33.1921 13.743 32.6881 13.743C32.1141 13.743 31.6241 13.876 31.2181 14.142C30.8121 14.394 30.5601 14.786 30.4621 15.318H27.9841C28.0681 14.562 28.3201 13.918 28.7401 13.386C29.1601 12.84 29.7131 12.42 30.3991 12.126C31.0991 11.818 31.8621 11.664 32.6881 11.664C33.6821 11.664 34.5291 11.839 35.2291 12.189C35.9291 12.525 36.4611 13.015 36.8251 13.659C37.2031 14.289 37.3921 15.052 37.3921 15.948V22.5H35.2501L34.9981 20.799C34.8581 21.079 34.6761 21.338 34.4521 21.576C34.2421 21.814 33.9971 22.024 33.7171 22.206C33.4371 22.374 33.1151 22.507 32.7511 22.605C32.4011 22.703 32.0021 22.752 31.5541 22.752ZM32.1211 20.757C32.5271 20.757 32.8841 20.687 33.1921 20.547C33.5141 20.393 33.7871 20.183 34.0111 19.917C34.2491 19.637 34.4311 19.329 34.5571 18.993C34.6831 18.657 34.7671 18.3 34.8091 17.922V17.88H32.4781C31.9881 17.88 31.5821 17.943 31.2601 18.069C30.9381 18.181 30.7071 18.349 30.5671 18.573C30.4271 18.797 30.3571 19.056 30.3571 19.35C30.3571 19.644 30.4271 19.896 30.5671 20.106C30.7071 20.316 30.9101 20.477 31.1761 20.589C31.4421 20.701 31.7571 20.757 32.1211 20.757ZM44.7887 22.752C43.8087 22.752 42.9337 22.514 42.1637 22.038C41.3937 21.562 40.7917 20.904 40.3577 20.064C39.9377 19.224 39.7277 18.272 39.7277 17.208C39.7277 16.144 39.9447 15.199 40.3787 14.373C40.8127 13.533 41.4147 12.875 42.1847 12.399C42.9687 11.909 43.8507 11.664 44.8307 11.664C45.6287 11.664 46.3217 11.818 46.9097 12.126C47.5117 12.42 47.9877 12.84 48.3377 13.386V7.38H50.8577V22.5H48.5897L48.3377 20.967C48.1137 21.275 47.8407 21.569 47.5187 21.849C47.1967 22.115 46.8117 22.332 46.3637 22.5C45.9157 22.668 45.3907 22.752 44.7887 22.752ZM45.3137 20.568C45.9157 20.568 46.4477 20.428 46.9097 20.148C47.3717 19.854 47.7287 19.455 47.9807 18.951C48.2327 18.447 48.3587 17.866 48.3587 17.208C48.3587 16.55 48.2327 15.969 47.9807 15.465C47.7287 14.961 47.3717 14.569 46.9097 14.289C46.4477 14.009 45.9157 13.869 45.3137 13.869C44.7397 13.869 44.2217 14.009 43.7597 14.289C43.2977 14.569 42.9337 14.961 42.6677 15.465C42.4157 15.969 42.2897 16.55 42.2897 17.208C42.2897 17.866 42.4157 18.447 42.6677 18.951C42.9337 19.455 43.2977 19.854 43.7597 20.148C44.2217 20.428 44.7397 20.568 45.3137 20.568ZM58.6169 22.752C57.5669 22.752 56.6429 22.528 55.8449 22.08C55.0469 21.618 54.4239 20.974 53.9759 20.148C53.5279 19.322 53.3039 18.37 53.3039 17.292C53.3039 16.172 53.5209 15.192 53.9549 14.352C54.4029 13.512 55.0259 12.854 55.8239 12.378C56.6359 11.902 57.5739 11.664 58.6379 11.664C59.6739 11.664 60.5769 11.895 61.3469 12.357C62.1169 12.819 62.7119 13.442 63.1319 14.226C63.5519 14.996 63.7619 15.864 63.7619 16.83C63.7619 16.97 63.7619 17.124 63.7619 17.292C63.7619 17.46 63.7479 17.635 63.7199 17.817H55.1099V16.2H61.2209C61.1929 15.43 60.9339 14.828 60.4439 14.394C59.9539 13.946 59.3449 13.722 58.6169 13.722C58.0989 13.722 57.6229 13.841 57.1889 14.079C56.7549 14.317 56.4119 14.674 56.1599 15.15C55.9079 15.612 55.7819 16.2 55.7819 16.914V17.523C55.7819 18.181 55.9009 18.748 56.1389 19.224C56.3909 19.7 56.7269 20.064 57.1469 20.316C57.5809 20.554 58.0639 20.673 58.5959 20.673C59.1839 20.673 59.6669 20.547 60.0449 20.295C60.4369 20.043 60.7239 19.707 60.9059 19.287H63.4679C63.2719 19.945 62.9499 20.54 62.5019 21.072C62.0539 21.59 61.5009 22.003 60.8429 22.311C60.1849 22.605 59.4429 22.752 58.6169 22.752Z" fill="#F9FFFF"/>
</g>
<g clip-path="url(#clip1_183701_1706)">
<path d="M66.491 22.5V7.8H69.473L74.177 17.292L78.839 7.8H81.842V22.5H79.322V12.126L75.164 20.442H73.19L69.011 12.147V22.5H66.491ZM89.697 22.752C88.647 22.752 87.723 22.528 86.925 22.08C86.127 21.618 85.504 20.974 85.056 20.148C84.608 19.322 84.384 18.37 84.384 17.292C84.384 16.172 84.601 15.192 85.035 14.352C85.483 13.512 86.106 12.854 86.904 12.378C87.716 11.902 88.654 11.664 89.718 11.664C90.754 11.664 91.657 11.895 92.427 12.357C93.197 12.819 93.792 13.442 94.212 14.226C94.632 14.996 94.842 15.864 94.842 16.83C94.842 16.97 94.842 17.124 94.842 17.292C94.842 17.46 94.828 17.635 94.8 17.817H86.19V16.2H92.301C92.273 15.43 92.014 14.828 91.524 14.394C91.034 13.946 90.425 13.722 89.697 13.722C89.179 13.722 88.703 13.841 88.269 14.079C87.835 14.317 87.492 14.674 87.24 15.15C86.988 15.612 86.862 16.2 86.862 16.914V17.523C86.862 18.181 86.981 18.748 87.219 19.224C87.471 19.7 87.807 20.064 88.227 20.316C88.661 20.554 89.144 20.673 89.676 20.673C90.264 20.673 90.747 20.547 91.125 20.295C91.517 20.043 91.804 19.707 91.986 19.287H94.548C94.352 19.945 94.03 20.54 93.582 21.072C93.134 21.59 92.581 22.003 91.923 22.311C91.265 22.605 90.523 22.752 89.697 22.752ZM87.471 11.013L87.24 9.312L91.734 6.687L92.028 8.64L87.471 11.013ZM101.873 22.752C100.893 22.752 100.018 22.514 99.2477 22.038C98.4777 21.562 97.8757 20.904 97.4417 20.064C97.0217 19.224 96.8117 18.272 96.8117 17.208C96.8117 16.144 97.0287 15.199 97.4627 14.373C97.8967 13.533 98.4987 12.875 99.2687 12.399C100.053 11.909 100.935 11.664 101.915 11.664C102.713 11.664 103.406 11.818 103.994 12.126C104.596 12.42 105.072 12.84 105.422 13.386V7.38H107.942V22.5H105.674L105.422 20.967C105.198 21.275 104.925 21.569 104.603 21.849C104.281 22.115 103.896 22.332 103.448 22.5C103 22.668 102.475 22.752 101.873 22.752ZM102.398 20.568C103 20.568 103.532 20.428 103.994 20.148C104.456 19.854 104.813 19.455 105.065 18.951C105.317 18.447 105.443 17.866 105.443 17.208C105.443 16.55 105.317 15.969 105.065 15.465C104.813 14.961 104.456 14.569 103.994 14.289C103.532 14.009 103 13.869 102.398 13.869C101.824 13.869 101.306 14.009 100.844 14.289C100.382 14.569 100.018 14.961 99.7517 15.465C99.4997 15.969 99.3737 16.55 99.3737 17.208C99.3737 17.866 99.4997 18.447 99.7517 18.951C100.018 19.455 100.382 19.854 100.844 20.148C101.306 20.428 101.824 20.568 102.398 20.568ZM110.85 22.5V11.916H113.37V22.5H110.85ZM112.11 10.236C111.648 10.236 111.263 10.096 110.955 9.816C110.661 9.522 110.514 9.165 110.514 8.745C110.514 8.311 110.661 7.961 110.955 7.695C111.263 7.415 111.648 7.275 112.11 7.275C112.572 7.275 112.95 7.415 113.244 7.695C113.552 7.961 113.706 8.311 113.706 8.745C113.706 9.165 113.552 9.522 113.244 9.816C112.95 10.096 112.572 10.236 112.11 10.236ZM121.301 22.752C120.265 22.752 119.334 22.521 118.508 22.059C117.696 21.583 117.059 20.932 116.597 20.106C116.149 19.266 115.925 18.314 115.925 17.25C115.925 16.144 116.149 15.178 116.597 14.352C117.059 13.512 117.696 12.854 118.508 12.378C119.334 11.902 120.272 11.664 121.322 11.664C122.638 11.664 123.744 12.014 124.64 12.714C125.536 13.4 126.11 14.345 126.362 15.549H123.716C123.576 15.017 123.282 14.597 122.834 14.289C122.4 13.981 121.882 13.827 121.28 13.827C120.762 13.827 120.286 13.96 119.852 14.226C119.432 14.492 119.096 14.877 118.844 15.381C118.606 15.885 118.487 16.494 118.487 17.208C118.487 17.754 118.557 18.237 118.697 18.657C118.837 19.077 119.033 19.434 119.285 19.728C119.551 20.008 119.852 20.225 120.188 20.379C120.524 20.533 120.888 20.61 121.28 20.61C121.686 20.61 122.05 20.547 122.372 20.421C122.708 20.281 122.988 20.078 123.212 19.812C123.45 19.546 123.618 19.231 123.716 18.867H126.362C126.11 20.043 125.536 20.988 124.64 21.702C123.744 22.402 122.631 22.752 121.301 22.752ZM132.32 22.752C131.452 22.752 130.731 22.605 130.157 22.311C129.583 22.017 129.156 21.625 128.876 21.135C128.596 20.645 128.456 20.113 128.456 19.539C128.456 18.867 128.624 18.286 128.96 17.796C129.31 17.306 129.821 16.928 130.493 16.662C131.165 16.382 131.991 16.242 132.971 16.242H135.638C135.638 15.682 135.561 15.22 135.407 14.856C135.253 14.478 135.015 14.198 134.693 14.016C134.371 13.834 133.958 13.743 133.454 13.743C132.88 13.743 132.39 13.876 131.984 14.142C131.578 14.394 131.326 14.786 131.228 15.318H128.75C128.834 14.562 129.086 13.918 129.506 13.386C129.926 12.84 130.479 12.42 131.165 12.126C131.865 11.818 132.628 11.664 133.454 11.664C134.448 11.664 135.295 11.839 135.995 12.189C136.695 12.525 137.227 13.015 137.591 13.659C137.969 14.289 138.158 15.052 138.158 15.948V22.5H136.016L135.764 20.799C135.624 21.079 135.442 21.338 135.218 21.576C135.008 21.814 134.763 22.024 134.483 22.206C134.203 22.374 133.881 22.507 133.517 22.605C133.167 22.703 132.768 22.752 132.32 22.752ZM132.887 20.757C133.293 20.757 133.65 20.687 133.958 20.547C134.28 20.393 134.553 20.183 134.777 19.917C135.015 19.637 135.197 19.329 135.323 18.993C135.449 18.657 135.533 18.3 135.575 17.922V17.88H133.244C132.754 17.88 132.348 17.943 132.026 18.069C131.704 18.181 131.473 18.349 131.333 18.573C131.193 18.797 131.123 19.056 131.123 19.35C131.123 19.644 131.193 19.896 131.333 20.106C131.473 20.316 131.676 20.477 131.942 20.589C132.208 20.701 132.523 20.757 132.887 20.757Z" fill="#ED982B"/>
</g>
<defs>
<clipPath id="clip0_183701_1706">
<rect width="65" height="29" fill="white" transform="translate(0 0.5)"/>
</clipPath>
<clipPath id="clip1_183701_1706">
<rect width="75" height="29" fill="white" transform="translate(65 0.5)"/>
</clipPath>
</defs>
</svg>
