<svg width="40" height="40" viewBox="0 0 40 40" fill="none" xmlns="http://www.w3.org/2000/svg">
<path d="M19.9968 13.6712C21.1018 13.6712 21.9975 12.7754 21.9975 11.6704C21.9975 10.5655 21.1018 9.66974 19.9968 9.66974C18.8918 9.66974 17.9961 10.5655 17.9961 11.6704C17.9961 12.7754 18.8918 13.6712 19.9968 13.6712Z" fill="#3688AE"/>
<path d="M17.9965 28.5231V35.679C17.9965 36.2096 18.2073 36.7185 18.5825 37.0937C18.9577 37.4689 19.4666 37.6797 19.9972 37.6797C20.5278 37.6797 21.0367 37.4689 21.4119 37.0937C21.7871 36.7185 21.9979 36.2096 21.9979 35.679V28.4964L26.0794 24.4216C26.454 24.0465 26.6645 23.538 26.6645 23.0078C26.6645 22.4776 26.454 21.9691 26.0794 21.594C25.6985 21.2303 25.1921 21.0274 24.6655 21.0274C24.1389 21.0274 23.6326 21.2303 23.2517 21.594L20.8308 24.0081C20.6044 24.2195 20.307 24.3384 19.9972 24.3416C19.8423 24.3417 19.6888 24.3111 19.5457 24.2516C19.4026 24.192 19.2728 24.1048 19.1636 23.9948L16.7494 21.5806C16.3701 21.2272 15.8685 21.0348 15.3502 21.044C14.8319 21.0531 14.3373 21.2631 13.9708 21.6296C13.6042 21.9962 13.3942 22.4907 13.3851 23.0091C13.3759 23.5274 13.5683 24.029 13.9217 24.4083L17.9965 28.5231Z" fill="#3688AE"/>
<path d="M4.8713 38.5733C5.10831 39.0482 5.52427 39.4095 6.02767 39.5778C6.53107 39.746 7.08067 39.7073 7.55558 39.4703C8.03049 39.2333 8.39179 38.8173 8.56001 38.3139C8.72822 37.8105 8.68958 37.2609 8.45257 36.786L5.88499 31.6775C4.56433 29.0353 3.91654 26.1079 3.99914 23.1552C4.08174 20.2024 4.89218 17.3158 6.35849 14.7515C8.30536 11.3386 9.32828 7.47678 9.32621 3.54757V3.00071C9.32621 2.47009 9.11542 1.9612 8.74021 1.58599C8.36501 1.21079 7.85612 1 7.3255 1C6.79488 1 6.28599 1.21079 5.91078 1.58599C5.53558 1.9612 5.32479 2.47009 5.32479 3.00071V3.54757C5.32437 6.77526 4.48313 9.94717 2.88392 12.7508C1.09612 15.8841 0.108479 19.4099 0.00843957 23.016C-0.0916002 26.6221 0.699051 30.1972 2.31039 33.4248L4.8713 38.5733Z" fill="#3688AE"/>
<path d="M36.0022 23.6347C35.9967 26.4127 35.3484 29.1517 34.1082 31.6375L31.5473 36.766C31.4299 37.0012 31.3601 37.2571 31.3416 37.5193C31.3232 37.7814 31.3566 38.0447 31.4399 38.2939C31.5232 38.5432 31.6547 38.7736 31.8271 38.972C31.9994 39.1704 32.2091 39.3329 32.4443 39.4503C32.6794 39.5677 32.9354 39.6375 33.1976 39.656C33.4597 39.6744 33.7229 39.641 33.9722 39.5577C34.2215 39.4744 34.4519 39.3429 34.6503 39.1705C34.8487 38.9982 35.0112 38.7885 35.1286 38.5533L37.6895 33.4248C39.3008 30.1972 40.0915 26.6221 39.9914 23.016C39.8914 19.4099 38.9037 15.8841 37.1159 12.7508C35.5144 9.9478 34.6709 6.77586 34.6684 3.54757V3.00071C34.6684 2.47009 34.4576 1.9612 34.0824 1.58599C33.7072 1.21079 33.1983 1 32.6677 1C32.1371 1 31.6282 1.21079 31.253 1.58599C30.8778 1.9612 30.667 2.47009 30.667 3.00071V3.54757C30.6693 7.47286 31.6944 11.3298 33.6414 14.7382C35.1875 17.4484 36.0011 20.5145 36.0022 23.6347Z" fill="#3688AE"/>
</svg>
