<svg width="30" height="30" viewBox="0 0 30 30" fill="none" xmlns="http://www.w3.org/2000/svg">
<path d="M16.4062 5.15625H13.5938C12.4749 5.15625 11.4018 5.60072 10.6106 6.39189C9.81947 7.18306 9.375 8.25612 9.375 9.375C8.25612 9.375 7.18306 9.81947 6.39189 10.6106C5.60072 11.4018 5.15625 12.4749 5.15625 13.5938V16.4062C5.15625 17.5251 5.60072 18.5982 6.39189 19.3894C7.18306 20.1805 8.25612 20.625 9.375 20.625C9.375 21.7439 9.81947 22.8169 10.6106 23.6081C11.4018 24.3993 12.4749 24.8438 13.5938 24.8438H16.4062C17.5251 24.8438 18.5982 24.3993 19.3894 23.6081C20.1805 22.8169 20.625 21.7439 20.625 20.625C21.7439 20.625 22.8169 20.1805 23.6081 19.3894C24.3993 18.5982 24.8438 17.5251 24.8438 16.4062V13.5938C24.8438 12.4749 24.3993 11.4018 23.6081 10.6106C22.8169 9.81947 21.7439 9.375 20.625 9.375C20.625 8.25612 20.1805 7.18306 19.3894 6.39189C18.5982 5.60072 17.5251 5.15625 16.4062 5.15625ZM21.0938 13.5938V16.4062C21.0938 16.5306 21.0444 16.6498 20.9565 16.7377C20.8685 16.8256 20.7493 16.875 20.625 16.875H16.875V20.625C16.875 20.7493 16.8256 20.8685 16.7377 20.9565C16.6498 21.0444 16.5306 21.0938 16.4062 21.0938H13.5938C13.4694 21.0938 13.3502 21.0444 13.2623 20.9565C13.1744 20.8685 13.125 20.7493 13.125 20.625V16.875H9.375C9.25068 16.875 9.13145 16.8256 9.04354 16.7377C8.95564 16.6498 8.90625 16.5306 8.90625 16.4062V13.5938C8.90625 13.4694 8.95564 13.3502 9.04354 13.2623C9.13145 13.1744 9.25068 13.125 9.375 13.125H13.125V9.375C13.125 9.25068 13.1744 9.13145 13.2623 9.04354C13.3502 8.95564 13.4694 8.90625 13.5938 8.90625H16.4062C16.5306 8.90625 16.6498 8.95564 16.7377 9.04354C16.8256 9.13145 16.875 9.25068 16.875 9.375V13.125H20.625C20.7493 13.125 20.8685 13.1744 20.9565 13.2623C21.0444 13.3502 21.0938 13.4694 21.0938 13.5938Z" fill="#ED982B"/>
<path d="M24.375 0H22.5C22.0027 0 21.5258 0.197544 21.1742 0.549175C20.8225 0.900806 20.625 1.37772 20.625 1.875C20.625 2.37228 20.8225 2.84919 21.1742 3.20082C21.5258 3.55246 22.0027 3.75 22.5 3.75H24.375C24.8723 3.75 25.3492 3.94754 25.7008 4.29918C26.0525 4.65081 26.25 5.12772 26.25 5.625V7.5C26.25 7.99728 26.4475 8.47419 26.7992 8.82582C27.1508 9.17746 27.6277 9.375 28.125 9.375C28.6223 9.375 29.0992 9.17746 29.4508 8.82582C29.8025 8.47419 30 7.99728 30 7.5V5.625C30 4.13316 29.4074 2.70242 28.3525 1.64752C27.2976 0.592632 25.8668 0 24.375 0Z" fill="#90D3DE"/>
<path d="M1.875 9.375C2.37228 9.375 2.84919 9.17746 3.20082 8.82582C3.55246 8.47419 3.75 7.99728 3.75 7.5V5.625C3.75 5.12772 3.94754 4.65081 4.29918 4.29918C4.65081 3.94754 5.12772 3.75 5.625 3.75H7.5C7.99728 3.75 8.47419 3.55246 8.82582 3.20082C9.17746 2.84919 9.375 2.37228 9.375 1.875C9.375 1.37772 9.17746 0.900806 8.82582 0.549175C8.47419 0.197544 7.99728 0 7.5 0H5.625C4.13316 0 2.70242 0.592632 1.64752 1.64752C0.592632 2.70242 0 4.13316 0 5.625V7.5C0 7.99728 0.197544 8.47419 0.549175 8.82582C0.900806 9.17746 1.37772 9.375 1.875 9.375Z" fill="#F9FFFF"/>
<path d="M0 24.375C0 25.8668 0.592632 27.2976 1.64752 28.3525C2.70242 29.4074 4.13316 30 5.625 30H7.5C7.99728 30 8.47419 29.8025 8.82582 29.4508C9.17746 29.0992 9.375 28.6223 9.375 28.125C9.375 27.6277 9.17746 27.1508 8.82582 26.7992C8.47419 26.4475 7.99728 26.25 7.5 26.25H5.625C5.12772 26.25 4.65081 26.0525 4.29918 25.7008C3.94754 25.3492 3.75 24.8723 3.75 24.375V22.5C3.75 22.0027 3.55246 21.5258 3.20082 21.1742C2.84919 20.8225 2.37228 20.625 1.875 20.625C1.37772 20.625 0.900806 20.8225 0.549175 21.1742C0.197544 21.5258 0 22.0027 0 22.5V24.375Z" fill="#F9FFFF"/>
<path d="M28.125 20.625C27.6277 20.625 27.1508 20.8225 26.7992 21.1742C26.4475 21.5258 26.25 22.0027 26.25 22.5V24.375C26.25 24.8723 26.0525 25.3492 25.7008 25.7008C25.3492 26.0525 24.8723 26.25 24.375 26.25H22.5C22.0027 26.25 21.5258 26.4475 21.1742 26.7992C20.8225 27.1508 20.625 27.6277 20.625 28.125C20.625 28.6223 20.8225 29.0992 21.1742 29.4508C21.5258 29.8025 22.0027 30 22.5 30H24.375C25.8668 30 27.2976 29.4074 28.3525 28.3525C29.4074 27.2976 30 25.8668 30 24.375V22.5C30 22.0027 29.8025 21.5258 29.4508 21.1742C29.0992 20.8225 28.6223 20.625 28.125 20.625Z" fill="#F9FFFF"/>
</svg>
