<svg width="40" height="40" viewBox="0 0 40 40" fill="none" xmlns="http://www.w3.org/2000/svg">
<path d="M39.3128 25.7378C39.1774 25.2411 38.8613 24.8218 38.4097 24.5638C37.9646 24.3058 37.4422 24.2348 36.939 24.3703C36.4423 24.5057 36.023 24.8218 35.765 25.2733L35.1393 26.3635L31.0883 24.0284L31.2496 23.5317C31.6173 22.3899 31.8044 21.203 31.8044 20.0032C31.8044 18.8034 31.6173 17.6036 31.2432 16.449L31.0819 15.9523L35.1264 13.6172L35.7715 14.7331C36.1133 15.333 36.7584 15.7007 37.4486 15.7007C37.784 15.7007 38.1195 15.6104 38.4162 15.4427C38.8613 15.1846 39.1838 14.7654 39.3193 14.2687C39.4547 13.772 39.3838 13.2495 39.1258 12.7979L35.9005 7.21174C35.6424 6.76665 35.2232 6.44412 34.7265 6.30866C34.2298 6.1732 33.7073 6.24415 33.2557 6.50218C32.8106 6.7602 32.4881 7.17949 32.3527 7.67618C32.2172 8.17287 32.2881 8.69537 32.5462 9.14691L33.1912 10.2629L29.1338 12.6044L28.7855 12.2174C27.1341 10.3919 25.0054 9.15981 22.6381 8.65022L22.1285 8.54056V3.87034H23.4186C24.483 3.87034 25.3538 2.99952 25.3538 1.93517C25.3538 0.870827 24.483 0 23.4186 0H16.968C15.9037 0 15.0329 0.870827 15.0329 1.93517C15.0329 2.99952 15.9037 3.87034 16.968 3.87034H18.2581V8.54056L17.7486 8.65022C15.3812 9.15981 13.259 10.3919 11.6076 12.2109L11.2593 12.598L7.19542 10.2564L7.84047 9.14046C8.0985 8.69537 8.16945 8.17287 8.03399 7.66973C7.89853 7.17304 7.58245 6.75375 7.13091 6.49573C6.68582 6.2377 6.16332 6.16675 5.66018 6.30221C5.16349 6.43767 4.7442 6.75375 4.48618 7.20529L1.26089 12.7915C1.00287 13.2366 0.931911 13.7591 1.06737 14.2622C1.20283 14.7589 1.51891 15.1782 1.97045 15.4362C2.26718 15.6039 2.59616 15.6942 2.93804 15.6942C3.62825 15.6942 4.27331 15.3266 4.61519 14.7267L5.26024 13.6107L9.30475 15.9394L9.14349 16.4361C8.76936 17.5972 8.58229 18.7905 8.58229 19.9968C8.58229 21.203 8.76936 22.3964 9.14349 23.551L9.30475 24.0477L5.26024 26.3828L4.61519 25.2669C4.35716 24.8218 3.93788 24.4993 3.44118 24.3638C2.94449 24.2283 2.42199 24.2993 1.97045 24.5573C1.52536 24.8153 1.20283 25.2346 1.06737 25.7313C0.931911 26.228 1.00287 26.7505 1.26089 27.2021L4.48618 32.7883C4.82806 33.3882 5.47311 33.7558 6.16332 33.7558C6.49875 33.7558 6.83418 33.6655 7.13091 33.4978C7.576 33.2398 7.89853 32.8205 8.03399 32.3238C8.16945 31.8271 8.0985 31.3046 7.84047 30.8531L7.19542 29.7371L11.2528 27.3956L11.6012 27.7826C13.2525 29.6081 15.3812 30.8402 17.7486 31.3498L18.2581 31.4594V36.1297H16.968C15.9037 36.1297 15.0329 37.0005 15.0329 38.0648C15.0329 39.1292 15.9037 40 16.968 40H23.4186C24.483 40 25.3538 39.1292 25.3538 38.0648C25.3538 37.0005 24.483 36.1297 23.4186 36.1297H22.1285V31.4594L22.6381 31.3498C25.0183 30.8402 27.147 29.5952 28.8048 27.7633L29.1532 27.3762L33.2106 29.7113L32.5462 30.8595C32.2881 31.3046 32.2172 31.8271 32.3527 32.3303C32.4881 32.8334 32.8042 33.2463 33.2557 33.5043C33.5525 33.672 33.8814 33.7623 34.2233 33.7623C34.9135 33.7623 35.5586 33.3946 35.9005 32.7947L39.1258 27.2085C39.3838 26.7634 39.4547 26.2409 39.3193 25.7378H39.3128ZM20.1869 27.7439C15.9166 27.7439 12.4462 24.2735 12.4462 20.0032C12.4462 15.7329 15.9166 12.2625 20.1869 12.2625C24.4571 12.2625 27.9276 15.7329 27.9276 20.0032C27.9276 24.2735 24.4571 27.7439 20.1869 27.7439Z" fill="#3688AE"/>
</svg>
