<svg width="178" height="30" viewBox="0 0 178 30" fill="none" xmlns="http://www.w3.org/2000/svg">
<path d="M16.4062 5.15625H13.5938C12.4749 5.15625 11.4018 5.60072 10.6106 6.39189C9.81947 7.18306 9.375 8.25612 9.375 9.375C8.25612 9.375 7.18306 9.81947 6.39189 10.6106C5.60072 11.4018 5.15625 12.4749 5.15625 13.5938V16.4062C5.15625 17.5251 5.60072 18.5982 6.39189 19.3894C7.18306 20.1805 8.25612 20.625 9.375 20.625C9.375 21.7439 9.81947 22.8169 10.6106 23.6081C11.4018 24.3993 12.4749 24.8438 13.5938 24.8438H16.4062C17.5251 24.8438 18.5982 24.3993 19.3894 23.6081C20.1805 22.8169 20.625 21.7439 20.625 20.625C21.7439 20.625 22.8169 20.1805 23.6081 19.3894C24.3993 18.5982 24.8438 17.5251 24.8438 16.4062V13.5938C24.8438 12.4749 24.3993 11.4018 23.6081 10.6106C22.8169 9.81947 21.7439 9.375 20.625 9.375C20.625 8.25612 20.1805 7.18306 19.3894 6.39189C18.5982 5.60072 17.5251 5.15625 16.4062 5.15625ZM21.0938 13.5938V16.4062C21.0938 16.5306 21.0444 16.6498 20.9565 16.7377C20.8685 16.8256 20.7493 16.875 20.625 16.875H16.875V20.625C16.875 20.7493 16.8256 20.8685 16.7377 20.9565C16.6498 21.0444 16.5306 21.0938 16.4062 21.0938H13.5938C13.4694 21.0938 13.3502 21.0444 13.2623 20.9565C13.1744 20.8685 13.125 20.7493 13.125 20.625V16.875H9.375C9.25068 16.875 9.13145 16.8256 9.04354 16.7377C8.95564 16.6498 8.90625 16.5306 8.90625 16.4062V13.5938C8.90625 13.4694 8.95564 13.3502 9.04354 13.2623C9.13145 13.1744 9.25068 13.125 9.375 13.125H13.125V9.375C13.125 9.25068 13.1744 9.13145 13.2623 9.04354C13.3502 8.95564 13.4694 8.90625 13.5938 8.90625H16.4062C16.5306 8.90625 16.6498 8.95564 16.7377 9.04354C16.8256 9.13145 16.875 9.25068 16.875 9.375V13.125H20.625C20.7493 13.125 20.8685 13.1744 20.9565 13.2623C21.0444 13.3502 21.0938 13.4694 21.0938 13.5938Z" fill="#ED982B"/>
<path d="M24.375 0H22.5C22.0027 0 21.5258 0.197544 21.1742 0.549175C20.8225 0.900806 20.625 1.37772 20.625 1.875C20.625 2.37228 20.8225 2.84919 21.1742 3.20082C21.5258 3.55246 22.0027 3.75 22.5 3.75H24.375C24.8723 3.75 25.3492 3.94754 25.7008 4.29918C26.0525 4.65081 26.25 5.12772 26.25 5.625V7.5C26.25 7.99728 26.4475 8.47419 26.7992 8.82582C27.1508 9.17746 27.6277 9.375 28.125 9.375C28.6223 9.375 29.0992 9.17746 29.4508 8.82582C29.8025 8.47419 30 7.99728 30 7.5V5.625C30 4.13316 29.4074 2.70242 28.3525 1.64752C27.2976 0.592632 25.8668 0 24.375 0Z" fill="#90D3DE"/>
<path d="M1.875 9.375C2.37228 9.375 2.84919 9.17746 3.20082 8.82582C3.55246 8.47419 3.75 7.99728 3.75 7.5V5.625C3.75 5.12772 3.94754 4.65081 4.29918 4.29918C4.65081 3.94754 5.12772 3.75 5.625 3.75H7.5C7.99728 3.75 8.47419 3.55246 8.82582 3.20082C9.17746 2.84919 9.375 2.37228 9.375 1.875C9.375 1.37772 9.17746 0.900806 8.82582 0.549175C8.47419 0.197544 7.99728 0 7.5 0H5.625C4.13316 0 2.70242 0.592632 1.64752 1.64752C0.592632 2.70242 0 4.13316 0 5.625V7.5C0 7.99728 0.197544 8.47419 0.549175 8.82582C0.900806 9.17746 1.37772 9.375 1.875 9.375Z" fill="#3688AE"/>
<path d="M0 24.375C0 25.8668 0.592632 27.2976 1.64752 28.3525C2.70242 29.4074 4.13316 30 5.625 30H7.5C7.99728 30 8.47419 29.8025 8.82582 29.4508C9.17746 29.0992 9.375 28.6223 9.375 28.125C9.375 27.6277 9.17746 27.1508 8.82582 26.7992C8.47419 26.4475 7.99728 26.25 7.5 26.25H5.625C5.12772 26.25 4.65081 26.0525 4.29918 25.7008C3.94754 25.3492 3.75 24.8723 3.75 24.375V22.5C3.75 22.0027 3.55246 21.5258 3.20082 21.1742C2.84919 20.8225 2.37228 20.625 1.875 20.625C1.37772 20.625 0.900806 20.8225 0.549175 21.1742C0.197544 21.5258 0 22.0027 0 22.5V24.375Z" fill="#3688AE"/>
<path d="M28.125 20.625C27.6277 20.625 27.1508 20.8225 26.7992 21.1742C26.4475 21.5258 26.25 22.0027 26.25 22.5V24.375C26.25 24.8723 26.0525 25.3492 25.7008 25.7008C25.3492 26.0525 24.8723 26.25 24.375 26.25H22.5C22.0027 26.25 21.5258 26.4475 21.1742 26.7992C20.8225 27.1508 20.625 27.6277 20.625 28.125C20.625 28.6223 20.8225 29.0992 21.1742 29.4508C21.5258 29.8025 22.0027 30 22.5 30H24.375C25.8668 30 27.2976 29.4074 28.3525 28.3525C29.4074 27.2976 30 25.8668 30 24.375V22.5C30 22.0027 29.8025 21.5258 29.4508 21.1742C29.0992 20.8225 28.6223 20.625 28.125 20.625Z" fill="#3688AE"/>
<g clip-path="url(#clip0_183660_156134)">
<path d="M38.525 22.5L43.901 7.8H46.715L52.091 22.5H49.424L45.287 10.74L41.15 22.5H38.525ZM40.919 19.035L41.591 17.04H48.836L49.508 19.035H40.919ZM58.5354 22.752C57.4994 22.752 56.5684 22.521 55.7424 22.059C54.9304 21.583 54.2934 20.932 53.8314 20.106C53.3834 19.266 53.1594 18.314 53.1594 17.25C53.1594 16.144 53.3834 15.178 53.8314 14.352C54.2934 13.512 54.9304 12.854 55.7424 12.378C56.5684 11.902 57.5064 11.664 58.5564 11.664C59.8724 11.664 60.9784 12.014 61.8744 12.714C62.7704 13.4 63.3444 14.345 63.5964 15.549H60.9504C60.8104 15.017 60.5164 14.597 60.0684 14.289C59.6344 13.981 59.1164 13.827 58.5144 13.827C57.9964 13.827 57.5204 13.96 57.0864 14.226C56.6664 14.492 56.3304 14.877 56.0784 15.381C55.8404 15.885 55.7214 16.494 55.7214 17.208C55.7214 17.754 55.7914 18.237 55.9314 18.657C56.0714 19.077 56.2674 19.434 56.5194 19.728C56.7854 20.008 57.0864 20.225 57.4224 20.379C57.7584 20.533 58.1224 20.61 58.5144 20.61C58.9204 20.61 59.2844 20.547 59.6064 20.421C59.9424 20.281 60.2224 20.078 60.4464 19.812C60.6844 19.546 60.8524 19.231 60.9504 18.867H63.5964C63.3444 20.043 62.7704 20.988 61.8744 21.702C60.9784 22.402 59.8654 22.752 58.5354 22.752ZM69.5541 22.752C68.6861 22.752 67.9651 22.605 67.3911 22.311C66.8171 22.017 66.3901 21.625 66.1101 21.135C65.8301 20.645 65.6901 20.113 65.6901 19.539C65.6901 18.867 65.8581 18.286 66.1941 17.796C66.5441 17.306 67.0551 16.928 67.7271 16.662C68.3991 16.382 69.2251 16.242 70.2051 16.242H72.8721C72.8721 15.682 72.7951 15.22 72.6411 14.856C72.4871 14.478 72.2491 14.198 71.9271 14.016C71.6051 13.834 71.1921 13.743 70.6881 13.743C70.1141 13.743 69.6241 13.876 69.2181 14.142C68.8121 14.394 68.5601 14.786 68.4621 15.318H65.9841C66.0681 14.562 66.3201 13.918 66.7401 13.386C67.1601 12.84 67.7131 12.42 68.3991 12.126C69.0991 11.818 69.8621 11.664 70.6881 11.664C71.6821 11.664 72.5291 11.839 73.2291 12.189C73.9291 12.525 74.4611 13.015 74.8251 13.659C75.2031 14.289 75.3921 15.052 75.3921 15.948V22.5H73.2501L72.9981 20.799C72.8581 21.079 72.6761 21.338 72.4521 21.576C72.2421 21.814 71.9971 22.024 71.7171 22.206C71.4371 22.374 71.1151 22.507 70.7511 22.605C70.4011 22.703 70.0021 22.752 69.5541 22.752ZM70.1211 20.757C70.5271 20.757 70.8841 20.687 71.1921 20.547C71.5141 20.393 71.7871 20.183 72.0111 19.917C72.2491 19.637 72.4311 19.329 72.5571 18.993C72.6831 18.657 72.7671 18.3 72.8091 17.922V17.88H70.4781C69.9881 17.88 69.5821 17.943 69.2601 18.069C68.9381 18.181 68.7071 18.349 68.5671 18.573C68.4271 18.797 68.3571 19.056 68.3571 19.35C68.3571 19.644 68.4271 19.896 68.5671 20.106C68.7071 20.316 68.9101 20.477 69.1761 20.589C69.4421 20.701 69.7571 20.757 70.1211 20.757ZM82.7887 22.752C81.8087 22.752 80.9337 22.514 80.1637 22.038C79.3937 21.562 78.7917 20.904 78.3577 20.064C77.9377 19.224 77.7277 18.272 77.7277 17.208C77.7277 16.144 77.9447 15.199 78.3787 14.373C78.8127 13.533 79.4147 12.875 80.1847 12.399C80.9687 11.909 81.8507 11.664 82.8307 11.664C83.6287 11.664 84.3217 11.818 84.9097 12.126C85.5117 12.42 85.9877 12.84 86.3377 13.386V7.38H88.8577V22.5H86.5897L86.3377 20.967C86.1137 21.275 85.8407 21.569 85.5187 21.849C85.1967 22.115 84.8117 22.332 84.3637 22.5C83.9157 22.668 83.3907 22.752 82.7887 22.752ZM83.3137 20.568C83.9157 20.568 84.4477 20.428 84.9097 20.148C85.3717 19.854 85.7287 19.455 85.9807 18.951C86.2327 18.447 86.3587 17.866 86.3587 17.208C86.3587 16.55 86.2327 15.969 85.9807 15.465C85.7287 14.961 85.3717 14.569 84.9097 14.289C84.4477 14.009 83.9157 13.869 83.3137 13.869C82.7397 13.869 82.2217 14.009 81.7597 14.289C81.2977 14.569 80.9337 14.961 80.6677 15.465C80.4157 15.969 80.2897 16.55 80.2897 17.208C80.2897 17.866 80.4157 18.447 80.6677 18.951C80.9337 19.455 81.2977 19.854 81.7597 20.148C82.2217 20.428 82.7397 20.568 83.3137 20.568ZM96.6169 22.752C95.5669 22.752 94.6429 22.528 93.8449 22.08C93.0469 21.618 92.4239 20.974 91.9759 20.148C91.5279 19.322 91.3039 18.37 91.3039 17.292C91.3039 16.172 91.5209 15.192 91.9549 14.352C92.4029 13.512 93.0259 12.854 93.8239 12.378C94.6359 11.902 95.5739 11.664 96.6379 11.664C97.6739 11.664 98.5769 11.895 99.3469 12.357C100.117 12.819 100.712 13.442 101.132 14.226C101.552 14.996 101.762 15.864 101.762 16.83C101.762 16.97 101.762 17.124 101.762 17.292C101.762 17.46 101.748 17.635 101.72 17.817H93.1099V16.2H99.2209C99.1929 15.43 98.9339 14.828 98.4439 14.394C97.9539 13.946 97.3449 13.722 96.6169 13.722C96.0989 13.722 95.6229 13.841 95.1889 14.079C94.7549 14.317 94.4119 14.674 94.1599 15.15C93.9079 15.612 93.7819 16.2 93.7819 16.914V17.523C93.7819 18.181 93.9009 18.748 94.1389 19.224C94.3909 19.7 94.7269 20.064 95.1469 20.316C95.5809 20.554 96.0639 20.673 96.5959 20.673C97.1839 20.673 97.6669 20.547 98.0449 20.295C98.4369 20.043 98.7239 19.707 98.9059 19.287H101.468C101.272 19.945 100.95 20.54 100.502 21.072C100.054 21.59 99.5009 22.003 98.8429 22.311C98.1849 22.605 97.4429 22.752 96.6169 22.752Z" fill="#3688AE"/>
</g>
<g clip-path="url(#clip1_183660_156134)">
<path d="M104.491 22.5V7.8H107.473L112.177 17.292L116.839 7.8H119.842V22.5H117.322V12.126L113.164 20.442H111.19L107.011 12.147V22.5H104.491ZM127.697 22.752C126.647 22.752 125.723 22.528 124.925 22.08C124.127 21.618 123.504 20.974 123.056 20.148C122.608 19.322 122.384 18.37 122.384 17.292C122.384 16.172 122.601 15.192 123.035 14.352C123.483 13.512 124.106 12.854 124.904 12.378C125.716 11.902 126.654 11.664 127.718 11.664C128.754 11.664 129.657 11.895 130.427 12.357C131.197 12.819 131.792 13.442 132.212 14.226C132.632 14.996 132.842 15.864 132.842 16.83C132.842 16.97 132.842 17.124 132.842 17.292C132.842 17.46 132.828 17.635 132.8 17.817H124.19V16.2H130.301C130.273 15.43 130.014 14.828 129.524 14.394C129.034 13.946 128.425 13.722 127.697 13.722C127.179 13.722 126.703 13.841 126.269 14.079C125.835 14.317 125.492 14.674 125.24 15.15C124.988 15.612 124.862 16.2 124.862 16.914V17.523C124.862 18.181 124.981 18.748 125.219 19.224C125.471 19.7 125.807 20.064 126.227 20.316C126.661 20.554 127.144 20.673 127.676 20.673C128.264 20.673 128.747 20.547 129.125 20.295C129.517 20.043 129.804 19.707 129.986 19.287H132.548C132.352 19.945 132.03 20.54 131.582 21.072C131.134 21.59 130.581 22.003 129.923 22.311C129.265 22.605 128.523 22.752 127.697 22.752ZM125.471 11.013L125.24 9.312L129.734 6.687L130.028 8.64L125.471 11.013ZM139.873 22.752C138.893 22.752 138.018 22.514 137.248 22.038C136.478 21.562 135.876 20.904 135.442 20.064C135.022 19.224 134.812 18.272 134.812 17.208C134.812 16.144 135.029 15.199 135.463 14.373C135.897 13.533 136.499 12.875 137.269 12.399C138.053 11.909 138.935 11.664 139.915 11.664C140.713 11.664 141.406 11.818 141.994 12.126C142.596 12.42 143.072 12.84 143.422 13.386V7.38H145.942V22.5H143.674L143.422 20.967C143.198 21.275 142.925 21.569 142.603 21.849C142.281 22.115 141.896 22.332 141.448 22.5C141 22.668 140.475 22.752 139.873 22.752ZM140.398 20.568C141 20.568 141.532 20.428 141.994 20.148C142.456 19.854 142.813 19.455 143.065 18.951C143.317 18.447 143.443 17.866 143.443 17.208C143.443 16.55 143.317 15.969 143.065 15.465C142.813 14.961 142.456 14.569 141.994 14.289C141.532 14.009 141 13.869 140.398 13.869C139.824 13.869 139.306 14.009 138.844 14.289C138.382 14.569 138.018 14.961 137.752 15.465C137.5 15.969 137.374 16.55 137.374 17.208C137.374 17.866 137.5 18.447 137.752 18.951C138.018 19.455 138.382 19.854 138.844 20.148C139.306 20.428 139.824 20.568 140.398 20.568ZM148.85 22.5V11.916H151.37V22.5H148.85ZM150.11 10.236C149.648 10.236 149.263 10.096 148.955 9.816C148.661 9.522 148.514 9.165 148.514 8.745C148.514 8.311 148.661 7.961 148.955 7.695C149.263 7.415 149.648 7.275 150.11 7.275C150.572 7.275 150.95 7.415 151.244 7.695C151.552 7.961 151.706 8.311 151.706 8.745C151.706 9.165 151.552 9.522 151.244 9.816C150.95 10.096 150.572 10.236 150.11 10.236ZM159.301 22.752C158.265 22.752 157.334 22.521 156.508 22.059C155.696 21.583 155.059 20.932 154.597 20.106C154.149 19.266 153.925 18.314 153.925 17.25C153.925 16.144 154.149 15.178 154.597 14.352C155.059 13.512 155.696 12.854 156.508 12.378C157.334 11.902 158.272 11.664 159.322 11.664C160.638 11.664 161.744 12.014 162.64 12.714C163.536 13.4 164.11 14.345 164.362 15.549H161.716C161.576 15.017 161.282 14.597 160.834 14.289C160.4 13.981 159.882 13.827 159.28 13.827C158.762 13.827 158.286 13.96 157.852 14.226C157.432 14.492 157.096 14.877 156.844 15.381C156.606 15.885 156.487 16.494 156.487 17.208C156.487 17.754 156.557 18.237 156.697 18.657C156.837 19.077 157.033 19.434 157.285 19.728C157.551 20.008 157.852 20.225 158.188 20.379C158.524 20.533 158.888 20.61 159.28 20.61C159.686 20.61 160.05 20.547 160.372 20.421C160.708 20.281 160.988 20.078 161.212 19.812C161.45 19.546 161.618 19.231 161.716 18.867H164.362C164.11 20.043 163.536 20.988 162.64 21.702C161.744 22.402 160.631 22.752 159.301 22.752ZM170.32 22.752C169.452 22.752 168.731 22.605 168.157 22.311C167.583 22.017 167.156 21.625 166.876 21.135C166.596 20.645 166.456 20.113 166.456 19.539C166.456 18.867 166.624 18.286 166.96 17.796C167.31 17.306 167.821 16.928 168.493 16.662C169.165 16.382 169.991 16.242 170.971 16.242H173.638C173.638 15.682 173.561 15.22 173.407 14.856C173.253 14.478 173.015 14.198 172.693 14.016C172.371 13.834 171.958 13.743 171.454 13.743C170.88 13.743 170.39 13.876 169.984 14.142C169.578 14.394 169.326 14.786 169.228 15.318H166.75C166.834 14.562 167.086 13.918 167.506 13.386C167.926 12.84 168.479 12.42 169.165 12.126C169.865 11.818 170.628 11.664 171.454 11.664C172.448 11.664 173.295 11.839 173.995 12.189C174.695 12.525 175.227 13.015 175.591 13.659C175.969 14.289 176.158 15.052 176.158 15.948V22.5H174.016L173.764 20.799C173.624 21.079 173.442 21.338 173.218 21.576C173.008 21.814 172.763 22.024 172.483 22.206C172.203 22.374 171.881 22.507 171.517 22.605C171.167 22.703 170.768 22.752 170.32 22.752ZM170.887 20.757C171.293 20.757 171.65 20.687 171.958 20.547C172.28 20.393 172.553 20.183 172.777 19.917C173.015 19.637 173.197 19.329 173.323 18.993C173.449 18.657 173.533 18.3 173.575 17.922V17.88H171.244C170.754 17.88 170.348 17.943 170.026 18.069C169.704 18.181 169.473 18.349 169.333 18.573C169.193 18.797 169.123 19.056 169.123 19.35C169.123 19.644 169.193 19.896 169.333 20.106C169.473 20.316 169.676 20.477 169.942 20.589C170.208 20.701 170.523 20.757 170.887 20.757Z" fill="#ED982B"/>
</g>
<defs>
<clipPath id="clip0_183660_156134">
<rect width="65" height="29" fill="white" transform="translate(38 0.5)"/>
</clipPath>
<clipPath id="clip1_183660_156134">
<rect width="75" height="29" fill="white" transform="translate(103 0.5)"/>
</clipPath>
</defs>
</svg>
