<svg width="40" height="40" viewBox="0 0 40 40" fill="none" xmlns="http://www.w3.org/2000/svg">
<g clip-path="url(#clip0_183660_156894)">
<path d="M20.0031 39.7475C21.0341 39.7475 21.8778 38.9039 21.8778 37.8728V27.3245C21.8778 25.0124 23.265 22.9627 25.4147 22.1003L26.952 21.4879C27.9143 21.1067 28.383 20.0132 27.9955 19.0508C27.6144 18.0885 26.5208 17.626 25.5584 18.0072L24.0212 18.6196C22.6464 19.1695 21.4528 20.0069 20.4717 21.1192L20.0031 21.6504L19.5344 21.1192C18.5533 20.0132 17.3597 19.1695 15.9849 18.6196L14.4477 18.0072C14.2227 17.9197 13.9853 17.8698 13.7478 17.8698C13.4978 17.8698 13.2479 17.9197 13.0104 18.0197C12.548 18.2197 12.1918 18.5821 12.0106 19.0446C11.6294 20.0069 12.0981 21.1005 13.0542 21.4817L14.5914 22.0941C16.7411 22.9564 18.1284 25.0061 18.1284 27.3183V37.8666C18.1284 38.8977 18.972 39.7413 20.0031 39.7413V39.7475Z" fill="#3688AE"/>
<path d="M2.94953 25.481C4.29932 27.7244 6.76143 29.1242 9.38602 29.1242C10.4171 29.1242 11.2607 28.2806 11.2607 27.2495C11.2607 26.2184 10.4171 25.3748 9.38602 25.3748C8.07372 25.3748 6.83642 24.6749 6.16778 23.5501C5.92406 23.1377 3.75566 19.407 3.75566 14.7515C3.75566 10.096 6.11153 6.60903 6.38024 6.25283C6.98015 5.45296 7.86126 4.93429 8.85485 4.79056C9.84844 4.65308 10.8358 4.90305 11.6357 5.50295C13.2292 6.69651 13.6041 8.92741 12.498 10.5834C11.9231 11.4458 12.1543 12.6081 13.0104 13.183C13.8666 13.7579 15.0351 13.5267 15.61 12.6706C17.8284 9.35859 17.0723 4.89055 13.8853 2.50342C12.573 1.51608 11.0108 1.00366 9.39851 1.00366C9.04232 1.00366 8.67988 1.02866 8.31744 1.07865C6.33025 1.35986 4.58053 2.39719 3.37447 4.00319C2.81206 4.75307 0 8.80243 0 14.7515C0 20.3006 2.44961 24.6624 2.94329 25.481H2.94953Z" fill="#3688AE"/>
<path d="M31.6829 1.07865C29.702 0.791199 27.7273 1.29737 26.1213 2.50343C22.9343 4.89055 22.1782 9.35859 24.3966 12.6706C24.9715 13.5267 26.14 13.7579 26.9962 13.183C27.8523 12.6081 28.0835 11.4395 27.5086 10.5834C26.4025 8.92741 26.7774 6.69652 28.3709 5.50295C29.0271 5.00928 29.8082 4.75307 30.6143 4.75307C30.7956 4.75307 30.9768 4.76557 31.158 4.79057C32.1516 4.93429 33.0265 5.45296 33.6264 6.25284C33.8951 6.60903 36.2509 9.88351 36.2509 14.7515C36.2509 19.6195 34.0888 23.1439 33.8388 23.5564C33.1639 24.6812 31.9329 25.3748 30.6206 25.3748C29.5895 25.3748 28.7459 26.2184 28.7459 27.2495C28.7459 28.2806 29.5895 29.1242 30.6206 29.1242C33.2452 29.1242 35.7073 27.7307 37.0571 25.481C37.5507 24.6624 40.0004 20.3006 40.0004 14.7515C40.0004 8.80243 37.1883 4.75307 36.6259 4.00319C35.4261 2.39719 33.6701 1.35986 31.6892 1.07865H31.6829Z" fill="#3688AE"/>
</g>
<defs>
<clipPath id="clip0_183660_156894">
<rect width="40" height="40" fill="white"/>
</clipPath>
</defs>
</svg>
