<svg width="40" height="40" viewBox="0 0 40 40" fill="none" xmlns="http://www.w3.org/2000/svg">
<g clip-path="url(#clip0_183660_156895)">
<path d="M38.607 19.0491C39.9614 17.2174 40.3483 14.8762 39.6582 12.6382C38.8069 9.85844 36.0142 7.84618 32.8733 7.74299L32.267 7.72364L32.2477 7.11738C32.1445 3.97645 30.1322 1.18379 27.3525 0.332452C25.1145 -0.351201 22.7798 0.0293223 20.9416 1.38373C20.761 1.51272 20.5934 1.65461 20.4257 1.80295L20 2.18992L19.4324 1.68686C17.8458 0.332452 15.7368 -0.241559 13.6601 0.0938177C10.4031 0.622681 7.86194 3.64107 7.74585 7.11738L7.7265 7.72364L7.12025 7.74299C3.97931 7.84618 1.18666 9.85844 0.335317 12.6382C-0.354785 14.8762 0.0321876 17.2109 1.38659 19.0491C1.52203 19.2296 1.65748 19.3973 1.80582 19.565L2.19279 19.9971L1.80582 20.4293C1.65748 20.5969 1.51558 20.7646 1.38659 20.9452C0.0321876 22.7769 -0.354785 25.1116 0.335317 27.3561C1.18666 30.1358 3.97931 32.1481 7.12025 32.2513L7.7265 32.2706L7.74585 32.8769C7.86194 36.3532 10.4031 39.3716 13.6601 39.9005C15.7433 40.2358 17.8458 39.6554 19.4324 38.3074L20 37.8044L20.4321 38.1913C20.5934 38.3397 20.7675 38.4816 20.9481 38.6105C22.7669 39.9521 25.1338 40.3455 27.3589 39.6618C30.1387 38.8105 32.151 36.0178 32.2541 32.8769L32.2735 32.2706L32.8798 32.2513C36.0207 32.1481 38.8133 30.1358 39.6647 27.3561C40.3548 25.1181 39.9678 22.7833 38.6134 20.9452C38.478 20.7646 38.3425 20.5969 38.1942 20.4293L37.8072 19.9971L38.1942 19.565C38.3425 19.4038 38.4844 19.2296 38.6134 19.0491H38.607ZM18.0651 32.793C18.0651 33.6766 17.762 34.4893 17.2073 35.0826C16.5817 35.7534 15.7368 36.1146 14.8339 36.1146C14.6533 36.1146 14.4663 36.1017 14.2857 36.0694C12.7894 35.8243 11.6156 34.3087 11.6156 32.6125C11.6156 30.2777 9.71297 28.3751 7.37823 28.3751C5.83034 28.3751 4.42433 27.4657 4.04381 26.2081C3.59879 24.7634 4.147 23.725 4.50818 23.2348C5.12733 22.4028 6.06897 21.9256 7.1009 21.9256H9.68072C10.7449 21.9256 11.6156 21.0549 11.6156 19.9907C11.6156 18.9265 10.7449 18.0558 9.68072 18.0558H7.1009C6.06897 18.0558 5.12088 17.5786 4.50818 16.7466C4.147 16.2564 3.59879 15.218 4.04381 13.7733C4.43078 12.5221 5.83034 11.6127 7.37823 11.6127C9.71297 11.6127 11.6156 9.7101 11.6156 7.37536C11.6156 5.67913 12.7894 4.16349 14.2857 3.9184C15.3886 3.73781 16.4527 4.09899 17.2073 4.90518C17.762 5.49854 18.0651 6.31119 18.0651 7.18832V32.793ZM30.3193 21.9256H32.8991C33.931 21.9256 34.8791 22.4028 35.4983 23.2348C35.8594 23.725 36.4077 24.7634 35.9626 26.2081C35.5757 27.4593 34.1761 28.3687 32.6282 28.3687C30.2935 28.3687 28.3909 30.2713 28.3909 32.606C28.3909 34.1539 27.4815 35.5599 26.2238 35.9404C25.8368 36.0565 25.4821 36.1081 25.1596 36.1081C24.2632 36.1081 23.6117 35.7469 23.2506 35.4761C22.4186 34.8634 21.9413 33.9153 21.9413 32.8833V7.09803C21.9413 6.0661 22.4186 5.11802 23.2506 4.50531C23.7407 4.14414 24.7856 3.59593 26.2238 4.04094C27.475 4.42792 28.3844 5.82747 28.3844 7.37536C28.3844 9.7101 30.287 11.6127 32.6218 11.6127C34.1697 11.6127 35.5757 12.5221 35.9562 13.7798C36.4012 15.2245 35.853 16.2628 35.4918 16.753C34.8791 17.585 33.931 18.0623 32.8991 18.0623H30.3193C29.2551 18.0623 28.3844 18.933 28.3844 19.9971C28.3844 21.0613 29.2551 21.932 30.3193 21.932V21.9256Z" fill="#3688AE"/>
</g>
<defs>
<clipPath id="clip0_183660_156895">
<rect width="40" height="40" fill="white"/>
</clipPath>
</defs>
</svg>
