<svg width="40" height="40" viewBox="0 0 40 40" fill="none" xmlns="http://www.w3.org/2000/svg">
<path d="M20 38.3807C31.0258 38.3807 40 30.5678 40 20.9614C39.9994 18.6238 39.4631 16.3175 38.4322 14.2195C39.4554 12.8017 40.0041 11.0968 40 9.34849C39.992 7.61661 39.4481 5.92966 38.4429 4.51931C37.4377 3.10895 36.0206 2.04436 34.3861 1.47172C32.7516 0.899082 30.9799 0.846482 29.3143 1.32114C27.6487 1.79581 26.1709 2.77445 25.0839 4.12269C21.7387 3.3497 18.2613 3.3497 14.9161 4.12269C13.5224 2.51509 11.5697 1.49729 9.45367 1.27542C7.33762 1.05355 5.21633 1.64419 3.51944 2.92773C1.82255 4.21127 0.676896 6.09175 0.314519 8.18831C-0.0478581 10.2849 0.400126 12.4408 1.56774 14.2195C0.536891 16.3175 0.000581147 18.6238 0 20.9614C0 30.5678 8.97419 38.3807 20 38.3807ZM5.24516 12.5743C4.81085 12.1567 4.46529 11.6558 4.22916 11.1015C3.99304 10.5472 3.8712 9.95098 3.87097 9.34849C3.8855 8.35007 4.23053 7.38461 4.85208 6.60311C5.47364 5.82161 6.33667 5.26814 7.30621 5.02926C8.27574 4.79037 9.29712 4.87955 10.2106 5.28284C11.1241 5.68612 11.8781 6.38078 12.3548 7.25817L13.0968 8.65817L14.6193 8.20656C18.1295 7.15573 21.8705 7.15573 25.3806 8.20656L26.9032 8.65817L27.6451 7.25172C27.9383 6.65571 28.3593 6.1317 28.8782 5.71704C29.397 5.30238 30.001 5.00726 30.6469 4.85274C31.2929 4.69821 31.965 4.68808 32.6154 4.82305C33.2657 4.95803 33.8783 5.23479 34.4094 5.63362C34.9405 6.03245 35.3771 6.54352 35.6881 7.13042C35.9991 7.71732 36.1768 8.36558 36.2086 9.02902C36.2403 9.69246 36.1254 10.3547 35.8718 10.9687C35.6183 11.5826 35.2325 12.133 34.7419 12.5807L33.6451 13.6453L34.4193 14.9356C35.5279 16.7507 36.1192 18.8345 36.129 20.9614C36.129 28.4324 28.8968 34.5098 20 34.5098C11.1032 34.5098 3.87097 28.4324 3.87097 20.9614C3.8785 18.8429 4.46285 16.7664 5.56129 14.9549L6.33548 13.6646L5.24516 12.5743Z" fill="#3688AE"/>
<path d="M13.2258 20.9614C14.4729 20.9614 15.4839 19.9504 15.4839 18.7033C15.4839 17.4562 14.4729 16.4453 13.2258 16.4453C11.9787 16.4453 10.9678 17.4562 10.9678 18.7033C10.9678 19.9504 11.9787 20.9614 13.2258 20.9614Z" fill="#3688AE"/>
<path d="M26.7747 20.9614C28.0218 20.9614 29.0327 19.9504 29.0327 18.7033C29.0327 17.4562 28.0218 16.4453 26.7747 16.4453C25.5276 16.4453 24.5166 17.4562 24.5166 18.7033C24.5166 19.9504 25.5276 20.9614 26.7747 20.9614Z" fill="#3688AE"/>
<path d="M18.6327 29.4259C18.9956 29.7883 19.4876 29.9919 20.0005 29.9919C20.5134 29.9919 21.0053 29.7883 21.3682 29.4259L22.6585 28.1356C22.9289 27.8649 23.1129 27.5202 23.1875 27.1449C23.262 26.7697 23.2237 26.3808 23.0773 26.0274C22.931 25.6739 22.6832 25.3718 22.3652 25.1591C22.0472 24.9464 21.6733 24.8327 21.2908 24.8323H18.7101C18.3276 24.8327 17.9537 24.9464 17.6357 25.1591C17.3178 25.3718 17.07 25.6739 16.9236 26.0274C16.7772 26.3808 16.7389 26.7697 16.8135 27.1449C16.888 27.5202 17.0721 27.8649 17.3424 28.1356L18.6327 29.4259Z" fill="#3688AE"/>
</svg>
