<svg width="16" height="16" viewBox="0 0 16 16" fill="none" xmlns="http://www.w3.org/2000/svg">
<path d="M6.34672 15.8786C6.76425 16.0311 7.2207 16.0402 7.64396 15.9044C8.06723 15.7686 8.43318 15.4956 8.68401 15.1286L13.4086 8.16676C13.6237 7.86757 13.7519 7.51477 13.7792 7.14729C13.8065 6.77982 13.7317 6.41195 13.5631 6.0843C13.3944 5.75665 13.1386 5.48196 12.8237 5.29054C12.5089 5.09912 12.1472 4.99842 11.7787 4.99955H10.3464L11.1638 2.65976C11.2691 2.35855 11.3008 2.03652 11.2562 1.72056C11.2117 1.4046 11.0921 1.10389 10.9077 0.843547C10.7232 0.583204 10.4791 0.370787 10.1957 0.224039C9.91238 0.0772913 9.59804 0.000472853 9.27896 4.32494e-07H4.02943C3.51137 -0.000340057 3.01339 0.200375 2.64037 0.559875C2.26735 0.919376 2.04839 1.40961 2.02961 1.92733L1.77963 8.92669C1.76989 9.19535 1.81441 9.46321 1.91054 9.71427C2.00667 9.96533 2.15243 10.1944 2.33911 10.3879C2.52579 10.5813 2.74956 10.7351 2.99703 10.8401C3.24451 10.9452 3.51062 10.9992 3.77945 10.999H5.31931L5.02934 13.7988C4.9855 14.2427 5.09135 14.6885 5.33005 15.0654C5.56876 15.4423 5.92662 15.7285 6.34672 15.8786ZM3.77945 8.99919L4.02943 1.99982H9.27896L7.52911 6.99937H11.7787L7.02916 13.9987L7.52911 8.99919H3.77945Z" fill="#F9FFFF"/>
</svg>
