<svg width="40" height="40" viewBox="0 0 40 40" fill="none" xmlns="http://www.w3.org/2000/svg">
<g clip-path="url(#clip0_183660_156899)">
<path d="M29.921 0H10.079C4.51686 0 0 4.52331 0 10.079V29.921C0 35.4831 4.52331 40 10.079 40H29.921C35.4831 40 40 35.4767 40 29.921V10.079C40 4.51686 35.4767 0 29.921 0ZM31.4051 4.03936L31.7793 4.15551C33.7216 4.76206 35.2444 6.28488 35.8509 8.22713L35.9671 8.60139L26.0623 18.5062C25.7396 18.8288 25.7396 19.3386 26.0623 19.7129C26.8947 20.7066 27.2431 21.9648 27.056 23.2554C26.7656 25.2363 25.1137 26.8366 23.1263 27.0689C22.9521 27.0882 22.7714 27.1011 22.5972 27.1011C21.4873 27.1011 20.4162 26.7011 19.5838 25.959C18.6224 25.1008 18.0674 23.8748 18.0674 22.5843V22.423C18.0674 22.1584 17.848 21.939 17.5835 21.939C15.2025 21.939 13.2021 20.2291 12.9376 17.9706C12.7827 16.6801 13.1892 15.3896 14.0474 14.4217C14.9056 13.4602 16.1381 12.9053 17.4222 12.9053C18.4933 12.9053 19.5257 13.2925 20.3388 13.9894C20.6743 14.2797 21.1776 14.2604 21.4938 13.9442L31.4051 4.03291V4.03936ZM36.1349 29.9274C36.1349 33.3538 33.3473 36.1349 29.9274 36.1349H10.0855C6.65914 36.1349 3.87805 33.3473 3.87805 29.9274V10.0855C3.87805 6.65914 6.66559 3.87805 10.0855 3.87805H26.101L20.3968 9.58219L20.0226 9.45959C19.1837 9.18213 18.3126 9.04662 17.4286 9.04662C12.8021 9.04662 9.04017 12.8085 9.04017 17.4351C9.04017 20.8679 11.1954 24.0103 14.4023 25.2557L14.6669 25.3589L14.7701 25.6235C16.0155 28.8305 19.1579 30.9856 22.5907 30.9856C27.2173 30.9856 30.9792 27.2237 30.9792 22.5972C30.9792 21.7132 30.8372 20.8421 30.5662 20.0032L30.4436 19.629L36.1478 13.9248V29.9403L36.1349 29.9274Z" fill="#3688AE"/>
</g>
<defs>
<clipPath id="clip0_183660_156899">
<rect width="40" height="40" fill="white"/>
</clipPath>
</defs>
</svg>
