<svg width="24" height="24" viewBox="0 0 24 24" fill="none" xmlns="http://www.w3.org/2000/svg">
<path d="M21.0448 5.62246C19.8466 5.36615 18.7615 4.7338 17.9479 3.81761C17.1342 2.90141 16.6344 1.74926 16.5214 0.529131V0H12.388V16.4043C12.3854 17.1305 12.1554 17.8377 11.7302 18.4264C11.305 19.0152 10.706 19.4559 10.0174 19.6867C9.32879 19.9174 8.58519 19.9267 7.89108 19.713C7.19697 19.4994 6.58725 19.0736 6.1476 18.4956C5.70111 17.9079 5.45344 17.1932 5.44049 16.4553C5.42754 15.7173 5.64998 14.9944 6.07557 14.3914C6.50115 13.7884 7.10775 13.3366 7.8074 13.1016C8.50705 12.8666 9.26337 12.8605 9.9667 13.0843V8.88484C8.39833 8.66803 6.80141 8.94686 5.39931 9.68233C3.99722 10.4178 2.86007 11.5731 2.14693 12.9867C1.43379 14.4003 1.18033 16.0015 1.42199 17.5662C1.66366 19.1309 2.38836 20.581 3.49474 21.7136C4.54983 22.7931 5.90269 23.5338 7.38062 23.841C8.85855 24.1483 10.3945 24.0081 11.7924 23.4385C13.1904 22.8689 14.3868 21.8956 15.2291 20.6429C16.0714 19.3902 16.5213 17.915 16.5214 16.4055V8.02335C18.1919 9.2176 20.1948 9.85796 22.2483 9.85431V5.74725C21.8439 5.74775 21.4405 5.70592 21.0448 5.62246Z" fill="#1E3845"/>
</svg>
