<svg width="24" height="24" viewBox="0 0 24 24" fill="none" xmlns="http://www.w3.org/2000/svg">
<path d="M12.213 0C18.7124 0 24 5.24835 24 11.6994C24 18.1498 18.7125 23.3977 12.2131 23.3976C10.2638 23.3976 8.33773 22.9169 6.63358 22.0064L0.406029 23.9854C0.375018 23.9953 0.343218 24 0.311664 24C0.229306 24 0.148663 23.9673 0.0892121 23.9066C0.00684966 23.8227 -0.0212146 23.6996 0.0164973 23.5883L2.04115 17.6159C0.983356 15.8284 0.424984 13.786 0.424984 11.6994C0.42499 5.24835 5.71309 3.38673e-06 12.213 0ZM12.213 2.43709C7.0645 2.43709 2.87588 6.5922 2.87587 11.6994C2.87587 13.6624 3.4906 15.5398 4.65349 17.1288C4.71349 17.2108 4.72978 17.3168 4.6972 17.413L3.69016 20.3841L6.80977 19.3925C6.8407 19.3827 6.8725 19.3778 6.90421 19.3778C6.96421 19.3778 7.02382 19.3951 7.07518 19.4289C8.6023 20.4309 10.3788 20.9606 12.213 20.9606C17.361 20.9606 21.549 16.8061 21.549 11.6994C21.549 6.5922 17.3608 2.4371 12.213 2.43709ZM9.02254 6.20634C9.36937 6.20634 9.61897 6.41679 9.80785 6.86883C9.88639 7.05615 10.6252 8.83917 10.6665 8.92191C10.7169 9.02082 10.8729 9.32703 10.6903 9.68991L10.6511 9.76869C10.5763 9.92034 10.5118 10.0512 10.3669 10.2199C10.3203 10.2736 10.2729 10.3307 10.2256 10.3876C10.1258 10.5079 10.0225 10.6321 9.92719 10.7264C9.89464 10.7591 9.83152 10.8224 9.82465 10.8475C9.82489 10.8475 9.82606 10.8691 9.85396 10.9167C10.0493 11.2473 11.474 13.2079 13.3509 14.0232C13.4328 14.0588 13.7036 14.1703 13.7193 14.1703C13.7367 14.1703 13.7659 14.1411 13.7872 14.1168C13.9507 13.932 14.4798 13.3135 14.6546 13.0537C14.8092 12.8225 15.0077 12.7047 15.2439 12.7047C15.3885 12.7047 15.5245 12.7492 15.6515 12.7948C15.9624 12.9067 17.7121 13.7683 17.7588 13.7907C17.988 13.9007 18.169 13.9876 18.274 14.1603C18.4273 14.4143 18.3666 15.114 18.1361 15.7544C17.8435 16.5676 16.5571 17.2341 15.9718 17.286L15.8859 17.2942C15.7506 17.3075 15.5971 17.3225 15.4055 17.3225H15.4054C14.9492 17.3225 14.1468 17.2443 12.4524 16.5675C10.6924 15.8644 8.95624 14.3571 7.56352 12.3231C7.53946 12.2879 7.52284 12.2634 7.51381 12.2513C7.15015 11.772 6.30316 10.5118 6.30313 9.17703C6.30313 7.69404 7.01302 6.85074 7.43263 6.5862C7.82833 6.33678 8.72323 6.21897 8.88757 6.21201C9.02254 6.20634 8.99035 6.20634 9.02254 6.20634Z" fill="#1E3845"/>
</svg>
